# xmcd
# 
# Track frame offsets:
#     150
#     61111
#     80816
#     105608
#     138289
#     170054
#     199534
# 
# Disc length: 3175
# 
# Revision: 1
# Processed by: cddbd v1.5.2PL0 Copyright (c) Steve Scherf et al.
# Submitted via: fre:ac v1.0.31
# 
DISCID=5a0c6507
DTITLE=Keith Jarrett - La Fenice CD 2
DYEAR=2018
DGENRE=Jazz
TTITLE0=Part VI
TTITLE1=The Sun Whose Rays
TTITLE2=Part VII
TTITLE3=Part VIII
TTITLE4=My Wild Irish Rose
TTITLE5=Stella By Starlight
TTITLE6=Blossom
EXTD=
EXTT0=
EXTT1=
EXTT2=
EXTT3=
EXTT4=
EXTT5=
EXTT6=
PLAYORDER=
